<!-- Lucide "popcorn" (ISC license). -->
<svg xmlns="http://www.w3.org/2000/svg" width="32" height="32" viewBox="0 0 24 24">
    <rect width="24" height="24" rx="5" fill="#000" />
    <g transform="translate(3 3) scale(0.75)" fill="none" stroke="#FFF" stroke-width="2.25" stroke-linecap="round" stroke-linejoin="round">
        <path d="M18 8a2 2 0 0 0 0-4 2 2 0 0 0-4 0 2 2 0 0 0-4 0 2 2 0 0 0-4 0 2 2 0 0 0 0 4" />
        <path d="M10 22 9 8" />
        <path d="m14 22 1-14" />
        <path d="M20 8c.5 0 .9.4.8 1l-2.6 12c-.1.5-.7 1-1.2 1H7c-.6 0-1.1-.4-1.2-1L3.2 9c-.1-.6.3-1 .8-1Z" />
    </g>
</svg>
